<?xml version="1.0" encoding="UTF-8"?>
<!-- 2021-01-30 11:08:24 Generated by QCAD 3.25.2 SVG Exporter -->
<svg width="2.7in" height="3.26in" viewBox="-2.7 -3.13 2.7 3.26" version="1.1" xmlns="http://www.w3.org/2000/svg" style="stroke-linecap:round;stroke-linejoin:round;fill:none" xmlns:sodipodi="http://sodipodi.sourceforge.net/DTD/sodipodi-0.dtd" xmlns:inkscape="http://www.inkscape.org/namespaces/inkscape">
    <sodipodi:namedview inkscape:document-units="in" unitToSymbol="in" units="in"/>
    <g transform="scale(1,-1)">
        <!-- Polyline -->
        <path d="M-2.7,0 L-2.5,0 L-2.5,-0.13 L-2.25,-0.13 L-2.25,0 L-0.45,0 L-0.45,-0.13 L-0.2,-0.13 L-0.2,0 L0,0 L0,3 L-0.2,3 L-0.2,3.13 L-0.45,3.13 L-0.45,3 L-2.25,3 L-2.25,3.13 L-2.5,3.13 L-2.5,3 L-2.7,3 Z" style="stroke:#000000;stroke-width:0.0098;"/>
        <!-- Polyline -->
        <path d="M-2.125,2.5078 A0.0629921,0.0629921 0 1 1 -2.125,2.3922 A0.0629921,0.0629921 0 1 1 -2.125,2.5078" style="stroke:#000000;stroke-width:0.0098;"/>
        <!-- Polyline -->
        <path d="M-0.45,0.6 A1.5,1.5 0 0 0 -1.5,1.35 A1.75,1.75 0 0 0 -0.45,1.35 A1.125,1.125 0 0 0 -0.45,0.6" style="stroke:#000000;stroke-width:0.0098;"/>
        <!-- Polyline -->
        <path d="M-0.45,1.65 A1.75,1.75 0 0 0 -1.5,1.65 A1.5,1.5 0 0 0 -0.45,2.4 A1.125,1.125 0 0 0 -0.45,1.65" style="stroke:#000000;stroke-width:0.0098;"/>
        <!-- Polyline -->
        <path d="M-1.8,1.65 A1.875,1.875 0 0 1 -1.8,2.7 A2.5,2.5 0 0 1 -0.45,2.7 A3.5,3.5 0 0 1 -1.8,1.65" style="stroke:#000000;stroke-width:0.0098;"/>
        <!-- Polyline -->
        <path d="M-1.8,0.3 A1.875,1.875 0 0 1 -1.8,1.35 A3.5,3.5 0 0 1 -0.45,0.3 A2.5,2.5 0 0 1 -1.8,0.3" style="stroke:#000000;stroke-width:0.0098;"/>
        <!-- Polyline -->
        <path d="M-2.125,0.4922 A0.0629921,0.0629921 0 1 1 -2.125,0.6078 A0.0629921,0.0629921 0 1 1 -2.125,0.4922" style="stroke:#000000;stroke-width:0.0098;"/>
        <!-- Circle -->
        <circle cx="-0.10000000000000996" cy="2.249999999999998" r="0.06299212598425204" style="stroke:#000000;stroke-width:0.0098;"/>
        <!-- Circle -->
        <circle cx="-0.10000000000000996" cy="1.149999999999999" r="0.06299212598425204" style="stroke:#000000;stroke-width:0.0098;"/>
        <!-- Circle -->
        <circle cx="-0.10000000000000996" cy="0.750000000000002" r="0.06299212598425204" style="stroke:#000000;stroke-width:0.0098;"/>
        <!-- Circle -->
        <circle cx="-0.10000000000000996" cy="1.8500000000000005" r="0.06299212598425204" style="stroke:#000000;stroke-width:0.0098;"/>
    </g>
</svg>
