<?xml version="1.0" encoding="UTF-8"?>
<!-- 2021-01-30 11:21:04 Generated by QCAD 3.25.2 SVG Exporter -->
<svg width="53.462mm" height="52.3097mm" viewBox="-46.2943 -5.0584 53.462 52.3097" version="1.1" xmlns="http://www.w3.org/2000/svg" style="stroke-linecap:round;stroke-linejoin:round;fill:none" xmlns:sodipodi="http://sodipodi.sourceforge.net/DTD/sodipodi-0.dtd" xmlns:inkscape="http://www.inkscape.org/namespaces/inkscape">
    <sodipodi:namedview inkscape:document-units="mm" unitToSymbol="mm" units="mm"/>
    <g transform="scale(1,-1)">
        <!-- Polyline -->
        <path d="M-5.3456,-14.0333 A138.238,138.238 0 0 1 -3.5625,-36.266 A142.715,142.715 0 0 1 -25.9446,-32.8666 A188.446,188.446 0 0 1 -5.3456,-14.0333" style="stroke:#000000;stroke-width:0.25;"/>
        <!-- Polyline -->
        <path d="M5.3773,-0.5364 A5.05842,5.05842 0 0 1 -3.589,3.1769 A178.446,178.446 0 0 0 -44.1029,-33.6495 A4.88228,4.88228 0 0 1 -41.2241,-42.602 A132.715,132.715 0 0 0 -1.8311,-47.0086 A7.15131,7.15131 0 0 1 7.0349,-38.7285 A128.238,128.238 0 0 0 5.3773,-0.5364" style="stroke:#000000;stroke-width:0.25;"/>
        <!-- Circle -->
        <circle cx="-41.41201048585947" cy="-37.399002493860436" r="2.0828" style="stroke:#000000;stroke-width:0.25;"/>
        <!-- Circle -->
        <circle cx="-4.830011390843936e-11" cy="-1.6995627127869284e-10" r="2.0828" style="stroke:#000000;stroke-width:0.25;"/>
        <!-- Circle -->
        <circle cx="0.016364061727722756" cy="-40.10000000004109" r="3.1749999999999994" style="stroke:#000000;stroke-width:0.25;"/>
    </g>
</svg>
