<?xml version="1.0" encoding="UTF-8"?>
<!-- 2021-01-30 11:22:05 Generated by QCAD 3.25.2 SVG Exporter -->
<svg width="71.6303mm" height="44.7585mm" viewBox="-68.2648 -22.083 71.6303 44.7585" version="1.1" xmlns="http://www.w3.org/2000/svg" style="stroke-linecap:round;stroke-linejoin:round;fill:none" xmlns:sodipodi="http://sodipodi.sourceforge.net/DTD/sodipodi-0.dtd" xmlns:inkscape="http://www.inkscape.org/namespaces/inkscape">
    <sodipodi:namedview inkscape:document-units="mm" unitToSymbol="mm" units="mm"/>
    <g transform="scale(1,-1)">
        <!-- Polyline -->
        <path d="M0.5,2.0219 A2.0828,2.0828 0 0 0 2.0219,0.5 L0.75,0.5 A0.5,0.5 0 0 1 0.5833,0.4714 A0.75,0.75 0 0 1 0.4714,0.5833 A0.5,0.5 0 0 1 0.5,0.75 Z" style="stroke:#000000;stroke-width:0.25;"/>
        <!-- Polyline -->
        <path d="M-0.5,-2.0219 A2.0828,2.0828 0 0 0 -2.0219,-0.5 L-0.75,-0.5 A0.5,0.5 0 0 1 -0.5833,-0.4714 A0.75,0.75 0 0 1 -0.4714,-0.5833 A0.5,0.5 0 0 1 -0.5,-0.75 Z" style="stroke:#000000;stroke-width:0.25;"/>
        <!-- Polyline -->
        <path d="M0.5,-2.0219 L0.5,-0.75 A0.5,0.5 0 0 1 0.4714,-0.5833 A0.75,0.75 0 0 1 0.5833,-0.4714 A0.5,0.5 0 0 1 0.75,-0.5 L2.0219,-0.5 A2.0828,2.0828 0 0 0 0.5,-2.0219" style="stroke:#000000;stroke-width:0.25;"/>
        <!-- Polyline -->
        <path d="M-0.5,2.0219 L-0.5,0.75 A0.5,0.5 0 0 1 -0.4714,0.5833 A0.75,0.75 0 0 1 -0.5833,0.4714 A0.5,0.5 0 0 1 -0.75,0.5 L-2.0219,0.5 A2.0828,2.0828 0 0 0 -0.5,2.0219" style="stroke:#000000;stroke-width:0.25;"/>
        <!-- Polyline -->
        <path d="M-52.1519,-7.2601 A128.985,128.985 0 0 1 -45.3364,10.9174 A168.863,168.863 0 0 1 -25.9672,1.7035 A223.006,223.006 0 0 1 -52.1519,-7.2601" style="stroke:#000000;stroke-width:0.25;"/>
        <!-- Polyline -->
        <path d="M0.5137,-2.848 A3.36547,3.36547 0 0 1 0.7622,3.756 A158.863,158.863 0 0 0 -42.9259,21.0479 A7.67685,7.67685 0 0 1 -54.1943,16.3807 A118.985,118.985 0 0 0 -67.5141,-14.8403 A5.15607,5.15607 0 0 1 -60.8367,-22.1479 A213.006,213.006 0 0 0 0.5137,-2.848" style="stroke:#000000;stroke-width:0.25;"/>
        <!-- Circle -->
        <circle cx="-46.77571375960547" cy="14.595636412394688" r="2.0828" style="stroke:#000000;stroke-width:0.25;"/>
        <!-- Circle -->
        <circle cx="-63.10873529140741" cy="-18.269579357951756" r="2.0828" style="stroke:#000000;stroke-width:0.25;"/>
    </g>
</svg>
