<?xml version="1.0" encoding="UTF-8"?>
<!-- 2021-01-30 11:23:21 Generated by QCAD 3.25.2 SVG Exporter -->
<svg width="2.0881in" height="3.8457in" viewBox="-0.7657 -1.9228 2.0881 3.8457" version="1.1" xmlns="http://www.w3.org/2000/svg" style="stroke-linecap:round;stroke-linejoin:round;fill:none" xmlns:sodipodi="http://sodipodi.sourceforge.net/DTD/sodipodi-0.dtd" xmlns:inkscape="http://www.inkscape.org/namespaces/inkscape">
    <sodipodi:namedview inkscape:document-units="in" unitToSymbol="in" units="in"/>
    <g transform="scale(1,-1)">
        <!-- Polyline -->
        <path d="M1.0496,-0.2706 A0.03,0.03 0 0 1 1.0908,-0.2696 A4,4 0 0 0 1.2795,-0.0943 A0.125,0.125 0 0 1 1.2795,0.0943 A4,4 0 0 0 1.0908,0.2696 A0.03,0.03 0 0 1 1.0496,0.2706 L0.919,0.153 L0.8353,0.2459 L0.9613,0.3593 A0.03,0.03 0 0 1 0.9633,0.4019 A4,4 0 0 0 0.1148,1.8376 A0.125,0.125 0 0 1 -0.0682,1.905 A1,1 0 0 0 -0.6343,1.7631 A0.125,0.125 0 0 1 -0.7575,1.5939 A3,3 0 0 0 -0.6045,0.0211 A0.125,0.125 0 0 1 -0.6045,-0.0211 A3,3 0 0 0 -0.7575,-1.5939 A0.125,0.125 0 0 1 -0.6343,-1.7631 A1,1 0 0 0 -0.0682,-1.905 A0.125,0.125 0 0 1 0.1148,-1.8376 A4,4 0 0 0 0.9633,-0.4019 A0.03,0.03 0 0 1 0.9613,-0.3593 L0.8353,-0.2459 L0.919,-0.153 Z" style="stroke:#000000;stroke-width:0.0098;"/>
        <!-- Polyline -->
        <path d="M-0.069,0.4574 A0.031,0.031 0 0 0 -0.1,0.4887 A3.46175,3.46175 0 0 1 -0.1491,1.11 A0.031,0.031 0 0 0 -0.0908,1.129 A4.46175,4.46175 0 0 1 0.2838,0.5065 A0.031,0.031 0 0 0 0.2586,0.4574 Z" style="stroke:#000000;stroke-width:0.0098;"/>
        <!-- Polyline -->
        <path d="M0.2586,-0.4574 A0.031,0.031 0 0 0 0.2838,-0.5065 A4.46175,4.46175 0 0 1 -0.0908,-1.129 A0.031,0.031 0 0 0 -0.1491,-1.11 A3.46175,3.46175 0 0 1 -0.1,-0.4887 A0.031,0.031 0 0 0 -0.069,-0.4574 Z" style="stroke:#000000;stroke-width:0.0098;"/>
        <!-- Polyline -->
        <path d="M0.1891,-0.9 L0.3141,-0.9 L0.3141,-1.15 L0.1891,-1.15 Z" style="stroke:#000000;stroke-width:0.0098;"/>
        <!-- Polyline -->
        <path d="M0.3141,1.15 L0.3141,0.9 L0.1891,0.9 L0.1891,1.15 Z" style="stroke:#000000;stroke-width:0.0098;"/>
        <!-- Circle -->
        <circle cx="-0.24300758284347773" cy="-1.4960629921259767" r="0.12499999999999994" style="stroke:#000000;stroke-width:0.0098;"/>
        <!-- Circle -->
        <circle cx="-0.24300758284347843" cy="1.4960629921259743" r="0.12499999999999994" style="stroke:#000000;stroke-width:0.0098;"/>
        <!-- Circle -->
        <circle cx="0.06407903132974824" cy="-8.741913579725641e-16" r="0.082" style="stroke:#000000;stroke-width:0.0098;"/>
    </g>
</svg>
