<?xml version="1.0" encoding="UTF-8"?>
<!-- 2021-01-30 11:23:37 Generated by QCAD 3.25.2 SVG Exporter -->
<svg width="2.0881in" height="3.8457in" viewBox="-1.6806 -1.9228 2.0881 3.8457" version="1.1" xmlns="http://www.w3.org/2000/svg" style="stroke-linecap:round;stroke-linejoin:round;fill:none" xmlns:sodipodi="http://sodipodi.sourceforge.net/DTD/sodipodi-0.dtd" xmlns:inkscape="http://www.inkscape.org/namespaces/inkscape">
    <sodipodi:namedview inkscape:document-units="in" unitToSymbol="in" units="in"/>
    <g transform="scale(1,-1)">
        <!-- Polyline -->
        <path d="M-1.4078,0.2706 A0.03,0.03 0 0 1 -1.449,0.2696 A4,4 0 0 0 -1.6377,0.0943 A0.125,0.125 0 0 1 -1.6377,-0.0943 A4,4 0 0 0 -1.449,-0.2696 A0.03,0.03 0 0 1 -1.4078,-0.2706 L-1.2772,-0.153 L-1.1935,-0.2459 L-1.3195,-0.3593 A0.03,0.03 0 0 1 -1.3215,-0.4019 A4,4 0 0 0 -0.473,-1.8376 A0.125,0.125 0 0 1 -0.29,-1.905 A1,1 0 0 0 0.2761,-1.7631 A0.125,0.125 0 0 1 0.3993,-1.5939 A3,3 0 0 0 0.2463,-0.0211 A0.125,0.125 0 0 1 0.2463,0.0211 A3,3 0 0 0 0.3993,1.5939 A0.125,0.125 0 0 1 0.2761,1.7631 A1,1 0 0 0 -0.29,1.905 A0.125,0.125 0 0 1 -0.473,1.8376 A4,4 0 0 0 -1.3215,0.4019 A0.03,0.03 0 0 1 -1.3195,0.3593 L-1.1935,0.2459 L-1.2772,0.153 Z" style="stroke:#000000;stroke-width:0.0098;"/>
        <!-- Polyline -->
        <path d="M-0.6168,-0.4574 L-0.2892,-0.4574 A0.031,0.031 0 0 0 -0.2582,-0.4887 A3.46175,3.46175 0 0 1 -0.209,-1.11 A0.031,0.031 0 0 0 -0.2674,-1.129 A4.46175,4.46175 0 0 1 -0.642,-0.5065 A0.031,0.031 0 0 0 -0.6168,-0.4574" style="stroke:#000000;stroke-width:0.0098;"/>
        <!-- Polyline -->
        <path d="M-0.2892,0.4574 L-0.6168,0.4574 A0.031,0.031 0 0 0 -0.642,0.5065 A4.46175,4.46175 0 0 1 -0.2674,1.129 A0.031,0.031 0 0 0 -0.209,1.11 A3.46175,3.46175 0 0 1 -0.2582,0.4887 A0.031,0.031 0 0 0 -0.2892,0.4574" style="stroke:#000000;stroke-width:0.0098;"/>
        <!-- Circle -->
        <circle cx="-0.4222691385704004" cy="3.3219271602957436e-15" r="0.082" style="stroke:#000000;stroke-width:0.0098;"/>
        <!-- Circle -->
        <circle cx="-1.405604139642184" cy="7.692883950158564e-15" r="0.082" style="stroke:#000000;stroke-width:0.0098;"/>
        <!-- Circle -->
        <circle cx="-0.1151825243971738" cy="-1.4960629921259732" r="0.12499999999999997" style="stroke:#000000;stroke-width:0.0098;"/>
        <!-- Circle -->
        <circle cx="-0.1151825243971734" cy="1.4960629921259792" r="0.125" style="stroke:#000000;stroke-width:0.0098;"/>
    </g>
</svg>
