<?xml version="1.0" encoding="UTF-8"?>
<!-- 2021-01-30 11:28:55 Generated by QCAD 3.25.2 SVG Exporter -->
<svg width="0.3in" height="10.5in" viewBox="-0.3 0 0.3 10.5" version="1.1" xmlns="http://www.w3.org/2000/svg" style="stroke-linecap:round;stroke-linejoin:round;fill:none" xmlns:sodipodi="http://sodipodi.sourceforge.net/DTD/sodipodi-0.dtd" xmlns:inkscape="http://www.inkscape.org/namespaces/inkscape">
    <sodipodi:namedview inkscape:document-units="in" unitToSymbol="in" units="in"/>
    <g transform="scale(1,-1)">
        <!-- Polyline -->
        <path d="M-0.3,-8.63 L-0.3,-10.255 L-0.2,-10.255 L-0.2,-10.38 L-0.3,-10.38 L-0.3,-10.5 L0,-10.5 L0,0 L-0.3,0 L-0.3,-0.12 L-0.2,-0.12 L-0.2,-0.245 L-0.3,-0.245 L-0.3,-1.87 L-0.2,-1.87 L-0.2,-1.995 L-0.3,-1.995 L-0.3,-3.62 L-0.2,-3.62 L-0.2,-3.745 L-0.3,-3.745 L-0.3,-6.755 L-0.2,-6.755 L-0.2,-6.88 L-0.3,-6.88 L-0.3,-8.505 L-0.2,-8.505 L-0.2,-8.63 Z" style="stroke:#000000;stroke-width:0.0098;"/>
    </g>
</svg>
